<svg fill="#1A76D0" xmlns="http://www.w3.org/2000/svg" viewBox="0 0 512 512"><title>Tooth_extraction</title><g id="Tooth_extraction"><path d="M453.19,85.45V20a5,5,0,0,0-6.25-4.84L270.24,61.12a94.06,94.06,0,0,0-139,25.41,2.34,2.34,0,0,0-.2.27c-43.12,66.2-57.85,133.48-43.78,200,3.19,15.08,19.22,48.13,46.05,48.13a4.79,4.79,0,0,0,2-.42L147.34,385c-6.67-1.48-12.33-3-16.8-4.28a27.53,27.53,0,0,0-15.89-5H63.81a5,5,0,0,0-5,5V492a5,5,0,0,0,5,5H360a5,5,0,0,0,5-5V380.76a5,5,0,0,0-5-5H309.19a27.89,27.89,0,0,0-16.12,5.16q-8.4,2.56-16.67,4.47l12.15-50.79a5,5,0,0,0,1.72.31c26.83,0,42.85-33.05,46-48.13a234.3,234.3,0,0,0,2.6-83.46H448.19a5,5,0,0,0,5-5V135a5,5,0,0,0-5-5H316.57c-.71-1.54-1.43-3.07-2.18-4.61l135.06-35.1A5,5,0,0,0,453.19,85.45ZM211.92,50.83a83.65,83.65,0,0,1,45.75,13.55,84.89,84.89,0,0,1,25.59,26,83.28,83.28,0,0,1,8.57,18.17,84.77,84.77,0,0,1,2.94,11.59,81.6,81.6,0,0,1,1.16,9.84,1.15,1.15,0,0,1,0,.19c.09,1.59.14,3.19.14,4.81s-.05,3.35-.15,5a83.37,83.37,0,0,1-9.38,33.87,84.33,84.33,0,0,1-11.36,16.57c-.86,1-1.74,1.94-2.65,2.88a84,84,0,0,1-124.2-3.23A83.7,83.7,0,0,1,127.75,135a84.23,84.23,0,0,1,84.17-84.17Zm75.69,179.89a215.49,215.49,0,0,1,4.09,37.45,44.87,44.87,0,0,0-10.3-15.05A32.08,32.08,0,0,0,259.08,244a35.47,35.47,0,0,0-10.32,1.58L230.91,251a64.4,64.4,0,0,1-38,0l-17.85-5.41c-12-3.64-23.6-1-32.64,7.57a45.22,45.22,0,0,0-10.58,15.72c.74-32.84,8.37-56.75,12.81-68a94,94,0,0,0,132,2.48h3.21A178.39,178.39,0,0,1,287.61,230.72ZM97,284.71c-10.83-51.16-3.82-102.92,20.84-154.35-.07,1.54-.11,3.08-.11,4.64a93.64,93.64,0,0,0,19.58,57.41c-6,13.15-24.62,61.84-10.46,131.55C110.71,319.15,99.65,297.15,97,284.71Zm52.9,111.11,6.87,28.72c2.33,9.75,11,16.82,20.63,16.82h.12a11.29,11.29,0,0,0,1.94-.18,120.93,120.93,0,0,0-5.5,29.06,3.07,3.07,0,0,1-3,2.86c-6.32,0-12.28-5-13.86-11.58l-15.4-64.4c-.07-.29-.14-.57-.22-.85a6.32,6.32,0,0,0-.18-.62c-.08-.28-.17-.56-.26-.84s-.24-.7-.37-1C143.55,394.45,146.64,395.14,149.92,395.82Zm43.52,5.86a304.23,304.23,0,0,0,37,.24c1.38,6.38,2.52,13,3.32,19.4-6-7.08-13.42-10.92-21.84-10.92s-15.84,3.84-21.85,10.92C190.88,414.84,192,408.14,193.44,401.68Zm2.39-9.85c.82-3.05,1.69-6,2.6-8.73,5.89-17.82,11.4-22.53,13.49-22.53s7.59,4.71,13.48,22.53c.93,2.82,1.82,5.82,2.66,8.94A296.47,296.47,0,0,1,195.83,391.83Zm100.27-.34c.17-.19.35-.37.53-.55a17.81,17.81,0,0,1,1.73-1.51h0a17.66,17.66,0,0,1,10.82-3.66H355V487H68.81V385.76h45.84a17.66,17.66,0,0,1,10.67,3.55h0l.61.48c.2.17.4.33.59.51l.57.53c.18.17.36.36.54.55s.35.38.51.57l.49.59c.15.18.28.36.41.54a18.31,18.31,0,0,1,2,3.47q.22.53.42,1.08c0,.11.08.22.11.33s.07.22.11.33c.12.37.22.75.31,1.14l15.4,64.39C150.06,475,160,483.1,171,483.1h.1A13.1,13.1,0,0,0,184,471c2.35-30.75,13.33-50.61,28-50.61s25.61,19.86,28,50.61a13.11,13.11,0,0,0,12.87,12.09h.1c11,0,20.92-8.1,23.59-19.26l15.4-64.39A17.73,17.73,0,0,1,296.1,391.49ZM283,394.08c-.09.25-.18.5-.26.75s-.24.75-.35,1.14-.22.76-.31,1.15l-15.4,64.4c-1.58,6.6-7.54,11.58-13.92,11.58a3,3,0,0,1-2.93-2.86,121.39,121.39,0,0,0-5.51-29.06,11.29,11.29,0,0,0,1.94.18h.12c9.62,0,18.3-7.07,20.63-16.82l6.78-28.33C276.87,395.56,280,394.85,283,394.08Zm-17.45-6.42L263,398.28l-5.72,23.93c-1.25,5.21-5.92,9.14-10.88,9.15h-.08a1.76,1.76,0,0,1-1.69-1.68,227.22,227.22,0,0,0-4.16-28.49c-.71-3.34-1.47-6.64-2.29-9.83-1-4-2.14-7.84-3.32-11.4-6.54-19.78-14.06-29.39-23-29.39s-16.44,9.61-23,29.39c-1.14,3.47-2.23,7.2-3.24,11.09-.82,3.18-1.59,6.48-2.3,9.82a227,227,0,0,0-4.23,28.81,1.76,1.76,0,0,1-1.69,1.68h-.07c-5,0-9.64-3.94-10.88-9.15l-5.83-24.37-2.53-10.6-19.07-79.72c-4.38-18.31-.28-37.25,10.2-47.12A22.35,22.35,0,0,1,164.78,254a25.59,25.59,0,0,1,7.39,1.15L190,260.53a74.12,74.12,0,0,0,43.79,0l17.85-5.41a27.34,27.34,0,0,1,4.39-1L234.14,289a5,5,0,0,0,5.55,7.49L262,290.38l-16.16,33.48a5,5,0,1,0,9,4.35l20.94-43.36a5,5,0,0,0-5.81-7l-20.53,5.59L267,255.51h0a24,24,0,0,1,7.52,4.89c10.48,9.87,14.58,28.81,10.21,47.12Zm60.95-103c-2.63,12.44-13.7,34.44-29.86,39.25,11.53-56.77,1.31-99.6-6.1-120.64h38.2A224.36,224.36,0,0,1,326.53,284.71ZM321,140H443.19v53.32H286.64l-.31-.69A93.66,93.66,0,0,0,306,140h15ZM443.19,81.59,309.8,116.25q-6.78-13-15-26a94.76,94.76,0,0,0-15.62-21.15l164-42.63Z" id="id_122"></path><path d="M206.92,183.86A49.08,49.08,0,0,0,260.78,140q0-.34.06-.69c.13-1.43.19-2.86.19-4.31a48.8,48.8,0,0,0-.25-5c0-.33-.07-.65-.11-1A49.07,49.07,0,0,0,214.43,86c-.83,0-1.67-.06-2.51-.06a49.11,49.11,0,0,0-5,98Zm44-52.29c.1,1.13.15,2.28.15,3.43a39.48,39.48,0,0,1-.31,5c-.09.68-.19,1.35-.31,2a39.09,39.09,0,0,1-33.49,31.78,39.84,39.84,0,0,1-10,0A39,39,0,0,1,188,166l18.92-18.92.76-.75L224,130h0l18.91-18.91A38.67,38.67,0,0,1,250.72,130C250.78,130.52,250.84,131,250.88,131.57Zm-66.64-24.24a38.74,38.74,0,0,1,20.82-10.85,40,40,0,0,1,6.86-.59A38.82,38.82,0,0,1,235.83,104L213,126.88l-4.52,4.53-.23.23-3.45,3.45-23.83,23.82a39.2,39.2,0,0,1,3.31-51.58Z" id="id_123"></path><path d="M167.8,267.08a20.74,20.74,0,1,0,20.75,20.74A20.76,20.76,0,0,0,167.8,267.08Zm0,31.48a10.74,10.74,0,1,1,10.75-10.74A10.75,10.75,0,0,1,167.8,298.56Z" id="id_124"></path><path d="M207,306.86A16.14,16.14,0,1,0,223.14,323,16.16,16.16,0,0,0,207,306.86Zm0,22.28a6.14,6.14,0,1,1,6.14-6.14A6.15,6.15,0,0,1,207,329.14Z" id="id_125"></path></g></svg>