<svg fill="#1A76D0" xmlns="http://www.w3.org/2000/svg" viewBox="0 0 512 512"><title>Brushing_teeth</title><g id="Brushing_teeth"><path d="M490.6,323.32a20.74,20.74,0,0,0-5.48-9.66A15.54,15.54,0,0,0,462,295.07a20.68,20.68,0,0,0-7.28-4.24c1.85-11,.58-21.77-3.38-30.56a32.44,32.44,0,0,0,.54-5.95,33.08,33.08,0,0,0-30.12-32.91A27.4,27.4,0,0,0,369.52,227a27.79,27.79,0,0,0-22.29,14,26.68,26.68,0,0,0-16.7,7.53,37.54,37.54,0,0,0-9.11,13.93,37.54,37.54,0,0,0-9.11-13.93,26.76,26.76,0,0,0-27.1-6.29l-14.29,4.33a50.51,50.51,0,0,1-29.84,0l-14.29-4.33a26.76,26.76,0,0,0-27.1,6.29,37.54,37.54,0,0,0-9.11,13.93,37.54,37.54,0,0,0-9.11-13.93,26.61,26.61,0,0,0-18.3-7.59,25.76,25.76,0,0,0-7.83-12.28,18.39,18.39,0,0,0,1.81-7.94c0-10.46-8.82-19-19.66-19a19.94,19.94,0,0,0-12.26,4.13,27.25,27.25,0,0,0-19-7.66,26.76,26.76,0,0,0-24,14.54,21.66,21.66,0,0,0-2.91-.19c-12.11,0-22,9.5-22,21.18a20.14,20.14,0,0,0,.33,3.65,18.86,18.86,0,0,0-.39,33.74,57,57,0,0,0-.17,18.9,18,18,0,0,0-23.95,8.17A21.34,21.34,0,0,0,15,319.29a21.13,21.13,0,0,0,2,8.92,23.73,23.73,0,0,0-2,9.47v144a5,5,0,0,0,5,5H490.42a5,5,0,0,0,5-5v-144A23.67,23.67,0,0,0,490.6,323.32ZM452.52,300.7a10.5,10.5,0,0,1,4.84,4.32,5,5,0,0,0,4.28,2.49h0A5,5,0,0,0,466,305.1a5.52,5.52,0,1,1,8.88,6.49,5,5,0,0,0-1.14,2.32,5,5,0,0,0,2.35,5.27,10.44,10.44,0,0,1,5.14,8.53h0c0,.17,0,.35,0,.52a10.53,10.53,0,0,1-19.18,6,5,5,0,0,0-8.95,1.63,10.52,10.52,0,0,1-10.21,7.95c-.22,0-.43,0-.65,0h0a10.47,10.47,0,0,1-8.84-6,0,0,0,0,1,0,0l-.12-.25a5,5,0,0,0-4.05-2.95,4.58,4.58,0,0,0-.53,0,5,5,0,0,0-4,2.06,5.67,5.67,0,0,1-10.26-3.32,5.69,5.69,0,0,1,4.51-5.56,5,5,0,0,0,3.45-2.64,4.6,4.6,0,0,0,.43-1.28,4.9,4.9,0,0,0-.34-3.06,7,7,0,0,1-.66-3,7.19,7.19,0,0,1,7.18-7.18,7.32,7.32,0,0,1,2.54.46,5,5,0,0,0,6.61-3.41,10.53,10.53,0,0,1,10.18-7.85A10.32,10.32,0,0,1,452.52,300.7ZM353.9,251.59a17.78,17.78,0,0,1,17.46-14.66,17.34,17.34,0,0,1,2.12.13,5,5,0,0,0,5.59-5.05v-.13a17.39,17.39,0,0,1,34.22-4.32,5,5,0,0,0,5,3.74h.59a23,23,0,0,1,23,23,22.67,22.67,0,0,1-1.15,7.17,23,23,0,0,1-43.66.33,5,5,0,0,0-4-3.31,3.8,3.8,0,0,0-.59-.06h-.17a4.8,4.8,0,0,0-1.6.27,5,5,0,0,0-3,2.8,17.74,17.74,0,0,1-34.1-6.84A17.38,17.38,0,0,1,353.9,251.59Zm-16.52,4.23a18.05,18.05,0,0,1,6.39-4c-.09.92-.14,1.86-.14,2.81a27.75,27.75,0,0,0,48.23,18.7,33,33,0,0,0,53.19,1,47.54,47.54,0,0,1-.36,15.7,20.49,20.49,0,0,0-14.53,10.52c-.41,0-.82,0-1.23,0a17.18,17.18,0,0,0-17.18,17.18,18.92,18.92,0,0,0,.13,2.14A15.67,15.67,0,0,0,427.6,347a19.33,19.33,0,0,0,2.92,2.66l-8.31,34.74c0,.21-.11.43-.18.64a8.51,8.51,0,0,1-.49,1.21c-.1.2-.21.38-.32.57a6.52,6.52,0,0,1-.51.78c-.11.14-.22.29-.34.42a6.19,6.19,0,0,1-.55.59,3.84,3.84,0,0,1-.3.28l-.34.28a8.78,8.78,0,0,1-1.08.76h0a5.77,5.77,0,0,1-.55.29,4.83,4.83,0,0,1-.52.23,5.17,5.17,0,0,1-.63.21,8.68,8.68,0,0,1-1,.23l-.47.05h-.48a.26.26,0,0,1-.18-.07.17.17,0,0,1-.06-.06.05.05,0,0,1,0-.05.37.37,0,0,1-.07-.12.59.59,0,0,1,0-.13c0-.26,0-.53-.07-.8s-.05-.56-.07-.85l-.18-1.82c-.1-1-.21-2-.34-3-.06-.51-.13-1-.2-1.56s-.14-1.12-.22-1.68-.12-.82-.18-1.25c-.13-.9-.27-1.83-.42-2.77-.11-.71-.23-1.42-.35-2.13-.09-.53-.18-1.06-.28-1.59s-.21-1.22-.33-1.84c-.18-1-.38-2-.58-3-2.17-10.79-5.47-22.5-10.11-30.81l-.45-.79c-.19-.33-.38-.65-.58-1s-.41-.66-.63-1-.39-.59-.6-.88c-3-4.34-6.29-6.79-9.88-7.37a7.5,7.5,0,0,0-.81-.11l-.41,0h-1.06l-.41,0a7.5,7.5,0,0,0-.81.11c-3.58.57-6.87,3-9.89,7.37-.19.27-.38.54-.56.82s-.45.68-.67,1l-.57,1-.45.79c-.24.44-.48.89-.72,1.36-4.27,8.2-7.34,19.25-9.39,29.45-.18.88-.36,1.76-.52,2.64s-.29,1.51-.41,2.26c-.22,1.22-.41,2.4-.6,3.57,0,.18-.06.36-.08.53-.14.88-.27,1.74-.39,2.61,0,0,0,0,0,.08-.05.31-.09.62-.13.92-.07.5-.14,1-.2,1.47s-.1.8-.15,1.19c-.08.54-.14,1.08-.2,1.61s-.15,1.31-.21,1.93c-.09.95-.18,1.84-.25,2.67,0,.28-.05.55-.07.82a.49.49,0,0,1-.25.39l-.15,0a7.21,7.21,0,0,1-2.71-.55,8.16,8.16,0,0,1-.84-.41,8.65,8.65,0,0,1-1.82-1.38,8.8,8.8,0,0,1-2.39-4.22L337,323.81l-1.48-6.17-.91-3.83-5.08-21.23C326.08,278.26,329.25,263.49,337.38,255.82Zm-16,45.95,2.88,12h-5.76ZM206.54,255.82a16.93,16.93,0,0,1,17.35-4l14.29,4.33a60.46,60.46,0,0,0,24.08,2.36,20.89,20.89,0,0,0-15.32,15.39,21.09,21.09,0,1,0,11.71,39.91,20.68,20.68,0,0,0,5.16-3.52,24,24,0,0,0,3.54,3.52,24.83,24.83,0,1,0,18.75-43.87,20.83,20.83,0,0,0-18.89-12l-.82,0a62.12,62.12,0,0,0,7.43-1.78l14.29-4.33a16.93,16.93,0,0,1,17.35,4c8.13,7.67,11.3,22.44,7.87,36.76l-5.08,21.23-2.38,10h0L291.38,384.4c-.06.23-.12.46-.2.69a8.83,8.83,0,0,1-1.31,2.51,7.42,7.42,0,0,1-.94,1.07l-.54.48a5.23,5.23,0,0,1-.55.41,7.7,7.7,0,0,1-1.67.9,7.19,7.19,0,0,1-2.59.5.26.26,0,0,1-.18-.07l-.06-.06a.05.05,0,0,1,0-.05.37.37,0,0,1-.07-.12.59.59,0,0,1,0-.13c0-.26,0-.53-.07-.8s0-.56-.07-.85l-.18-1.82c0-.32-.06-.64-.1-1-.07-.66-.16-1.36-.24-2.07s-.17-1.41-.27-2.12-.17-1.19-.25-1.81c-.13-.92-.27-1.87-.42-2.84-.1-.58-.19-1.17-.29-1.77l0-.19c-.22-1.32-.46-2.68-.72-4.06-.18-1-.38-2-.58-3-2.17-10.79-5.47-22.5-10.11-30.81l-.45-.79q-.24-.42-.48-.81c-.2-.33-.4-.65-.61-1s-.55-.81-.83-1.2-.64-.88-1-1.29l-.62-.75A15.3,15.3,0,0,0,259.8,327l-.31-.11c-.3-.1-.6-.2-.9-.27a9,9,0,0,0-1.17-.24,2.42,2.42,0,0,0-.47-.06l-.39,0a.26.26,0,0,0-.15,0,4.21,4.21,0,0,0-.82,0,.26.26,0,0,0-.15,0l-.39,0a2.42,2.42,0,0,0-.47.06,9,9,0,0,0-1.17.24c-.3.07-.6.17-.9.27l-.31.11a15.3,15.3,0,0,0-6.13,4.62l-.62.75c-.33.41-.65.84-1,1.29s-.56.79-.83,1.2-.41.63-.61,1l-.48.81-.45.79c-4.64,8.31-7.94,20-10.11,30.82-.09.45-.18.88-.26,1.32s-.14.72-.22,1.08c0,.15-.05.29-.07.43-.14.72-.27,1.44-.39,2.15s-.23,1.31-.34,2c-.19,1.13-.36,2.22-.52,3.3,0,.11,0,.23,0,.34-.11.74-.21,1.47-.31,2.2-.16,1.16-.31,2.29-.44,3.36-.07.59-.14,1.16-.2,1.71,0,.36-.08.72-.11,1.07l-.09.9c0,.39-.07.77-.11,1.15s-.08.9-.11,1.32a.51.51,0,0,1,0,.13.41.41,0,0,1-.07.11.09.09,0,0,1,0,.05.13.13,0,0,1-.07.06l-.08.05-.12,0a7.21,7.21,0,0,1-2.71-.55,8.12,8.12,0,0,1-2.67-1.79,8.8,8.8,0,0,1-2.39-4.22l-14.48-60.59h0l-2.38-10-5.08-21.23C195.24,278.26,198.41,263.49,206.54,255.82Zm60.67,12.09A10.83,10.83,0,0,1,277.7,276a5,5,0,0,0,5,3.75l.37,0a14.84,14.84,0,1,1-14,19.66,5,5,0,0,0-4.56-3.37h-.17a5,5,0,0,0-4.61,3.07,11.08,11.08,0,1,1-10.23-15.36,10.3,10.3,0,0,1,1.33.08,5,5,0,0,0,5.59-5v-.14A10.85,10.85,0,0,1,267.21,267.91Zm-76.63,33.86,2.88,12H187.7ZM163.88,251a17.11,17.11,0,0,1,10.74,4.84c8.13,7.67,11.3,22.44,7.88,36.76l-5.08,21.23-.91,3.83L175,323.81,160.54,384.4c-.06.23-.12.46-.2.69A8.83,8.83,0,0,1,159,387.6a7.42,7.42,0,0,1-.94,1.07,6.17,6.17,0,0,1-.54.48,5.23,5.23,0,0,1-.55.41,5,5,0,0,1-.57.37h0a5.77,5.77,0,0,1-.55.29,6.66,6.66,0,0,1-1.15.44,4.61,4.61,0,0,1-.64.16c-.22,0-.44.08-.66.1l-.66,0a.28.28,0,0,1-.13,0,.48.48,0,0,1-.24-.39h0c0-.55-.09-1.09-.14-1.65,0-.29-.05-.59-.08-.89-.07-.74-.16-1.54-.25-2.36,0-.11,0-.23,0-.34-.05-.49-.11-1-.18-1.48,0-.16,0-.32-.06-.48q-.12-1-.27-2.07l-.15-1.07c-.1-.72-.21-1.46-.32-2.21s-.24-1.51-.37-2.29c0-.26-.08-.51-.13-.77a2.76,2.76,0,0,0-.06-.4c-.06-.38-.13-.77-.2-1.15s-.14-.81-.22-1.22-.15-.82-.22-1.23c-.17-.89-.34-1.78-.53-2.68-2-10.21-5.12-21.25-9.39-29.45-.24-.47-.48-.92-.72-1.36l-.45-.79q-.22-.42-.48-.81c-.18-.3-.36-.58-.54-.86l-.51-.77c-.15-.22-.3-.44-.46-.65s-.3-.42-.46-.62q-3.41-4.59-7.31-6a2.6,2.6,0,0,0-.44-.16l-.45-.14-.8-.19-.57-.09-.47-.06-.39,0h-1.09l-.41,0a3.78,3.78,0,0,0-.47.06c-.22,0-.44.06-.66.11l-.32.07-.38.1q-5.49,1.44-10.09,9c-.2.32-.39.64-.58,1l-.45.79c-4.64,8.31-7.94,20-10.11,30.82-.09.45-.18.88-.26,1.32s-.14.72-.22,1.08c0,.15-.05.29-.07.43-.11.59-.22,1.17-.32,1.76l-.3,1.72-.06.36c-.08.45-.15.9-.22,1.34s-.18,1.11-.26,1.65l-.09.59c-.11.69-.2,1.37-.3,2,0,.05,0,.09,0,.14,0,.32-.09.63-.13.95s-.09.63-.12.95-.06.42-.08.63-.08.58-.11.86c-.13,1-.24,2-.34,3l-.09.93c-.06.6-.12,1.19-.16,1.74,0,.27-.05.54-.07.8a.51.51,0,0,1,0,.13.41.41,0,0,1-.07.11.09.09,0,0,1,0,.05.29.29,0,0,1-.12.1l-.15,0-.56,0h-.08a3.78,3.78,0,0,1-.47-.06h0l-.53-.12a5,5,0,0,1-.55-.16l-.42-.16-.3-.13a3.42,3.42,0,0,1-.43-.21,5.54,5.54,0,0,1-.62-.36,4.6,4.6,0,0,1-.45-.32,6.25,6.25,0,0,1-.5-.4,6,6,0,0,1-.52-.49,4,4,0,0,1-.4-.43c-.14-.16-.28-.33-.41-.51l-.39-.58a9.07,9.07,0,0,1-1.09-2.6L77.24,331.91a18.21,18.21,0,0,0-7.07-29.53l-2.34-9.8a48.27,48.27,0,0,1-.75-19,20.42,20.42,0,0,0,10.85-3.21A27.24,27.24,0,0,0,121.31,268a27.32,27.32,0,0,0,16.18,5.29C151,273.3,162.2,263.55,163.88,251Zm-106.8,3.4a9.41,9.41,0,0,1,7.81-9,5,5,0,0,0,3.54-7.07,10.45,10.45,0,0,1-1.05-4.58c0-6.16,5.37-11.18,12-11.18a12.51,12.51,0,0,1,4.3.75,5,5,0,0,0,6.53-3.38c1.88-6.9,8.5-11.72,16.09-11.72a16.92,16.92,0,0,1,14.43,7.87,5,5,0,0,0,8.48.08,9.87,9.87,0,0,1,8.32-4.42c5.32,0,9.66,4,9.66,9a8.6,8.6,0,0,1-2.31,5.82,5,5,0,0,0,1.21,7.73,15.76,15.76,0,0,1,7.17,8.32,14.86,14.86,0,0,1,.89,5.07,14.68,14.68,0,0,1-1,5.42,16.63,16.63,0,0,1-15.59,10.21,17.14,17.14,0,0,1-11.62-4.47,16.31,16.31,0,0,1-2.11-2.35A5,5,0,0,0,115,258a1.27,1.27,0,0,0-.06.18c-1.84,7-8.48,11.86-16.14,11.86a16.69,16.69,0,0,1-15.24-9.4,5,5,0,0,0-4-2.87,4.89,4.89,0,0,0-.54,0,5,5,0,0,0-4,2,9.82,9.82,0,0,1-4.5,3.26,10.41,10.41,0,0,1-10.21-1.8A8.87,8.87,0,0,1,57.08,254.38Zm8.8,73.09a8,8,0,0,1-2,.24,8.19,8.19,0,0,1-7-3.9,8.89,8.89,0,0,1-.59-1.15A5,5,0,0,0,47,323c-.1.29-.21.57-.33.85A11.3,11.3,0,0,1,25,319.29c0-.35,0-.7.05-1.05A11.33,11.33,0,0,1,36.3,308h.29a5,5,0,0,0,5-3.74,8,8,0,0,1,15.78,2v.14a5,5,0,0,0,4.69,5,5.42,5.42,0,0,0,.9,0,8.74,8.74,0,0,1,1-.06,8.17,8.17,0,0,1,5.93,2.54s-.23,0,.1.1a8.2,8.2,0,0,1,1,9.9,8.26,8.26,0,0,1-5,3.66M485.42,476.69H25v-139c0-.11,0-.23,0-.34a21.28,21.28,0,0,0,27.2-3.88,18.25,18.25,0,0,0,16,3.74h0l11.85,49.53a18.65,18.65,0,0,0,3.76,7.55c.32.39.66.77,1,1.13A18.25,18.25,0,0,0,91,399.63c.35.14.7.28,1.06.4l.34.11.51.16c.36.1.73.19,1.1.27s.81.16,1.22.22l.2,0a16.34,16.34,0,0,0,2.22.15l.48,0a12,12,0,0,0,1.48-.19c.32-.07.62-.15.92-.24a10.39,10.39,0,0,0,4.44-2.71c.22-.23.43-.47.63-.71a10.7,10.7,0,0,0,1.15-1.74,10.22,10.22,0,0,0,.69-1.63c.1-.31.18-.63.26-1s.13-.65.17-1c0-.16,0-.33,0-.5a170.6,170.6,0,0,1,7.39-37.67c3.27-9.88,6.28-14.37,8.14-16.22a6.52,6.52,0,0,1,.58-.53l.26-.2.23-.15,0,0,.14-.08.11-.05h.05l.13-.05h.33l.1,0,0,0a3.53,3.53,0,0,1,.58.34l.24.18a6.52,6.52,0,0,1,.58.53c1.86,1.85,4.87,6.34,8.14,16.22a171.07,171.07,0,0,1,7.4,37.67,10.48,10.48,0,0,0,7.43,9.22,7.77,7.77,0,0,0,.95.24,10.32,10.32,0,0,0,1.48.19l.51,0a16.56,16.56,0,0,0,2.22-.15c.49-.07,1-.16,1.46-.27s1-.24,1.44-.39l.07,0c.55-.18,1.09-.38,1.62-.61s1-.46,1.47-.73c.25-.13.49-.27.73-.42l.72-.47a17.2,17.2,0,0,0,1.39-1c.2-.16.39-.33.58-.5.35-.31.69-.64,1-1l.08-.09q.4-.42.78-.87c.19-.24.39-.48.57-.73a0,0,0,0,0,0,0c.19-.25.38-.51.55-.77a.21.21,0,0,0,.08-.12c.19-.27.36-.55.53-.83s.32-.55.48-.83c0,0,0-.05,0-.08.16-.31.31-.62.46-.94a19,19,0,0,0,.76-1.94q.24-.72.42-1.47l15.06-62.92h10.52l15.06,62.92a18.77,18.77,0,0,0,8.91,11.91,18,18,0,0,0,2,1l.69.27c.48.17.95.32,1.44.46l.73.18c.49.11,1,.2,1.49.27a15.83,15.83,0,0,0,2.29.16l.5,0a10.19,10.19,0,0,0,1.47-.19q.48-.11.93-.24a10.42,10.42,0,0,0,5.07-3.43c.21-.25.39-.5.57-.76a10.3,10.3,0,0,0,1.1-2.14c.06-.15.11-.31.16-.46.1-.31.19-.63.26-1,0-.16.07-.32.1-.48h0c.06-.33.1-.66.13-1,.24-3.07.59-6.28,1-9.53l.36-2.45c.25-1.64.53-3.28.83-4.91a157.76,157.76,0,0,1,5.16-20.78c.3-.9.59-1.76.89-2.57l.27-.75q.41-1.11.81-2.1c.36-.89.7-1.72,1-2.48.41-.91.81-1.75,1.2-2.51l.29-.55c.29-.54.57-1,.84-1.49s.48-.78.7-1.12c0,0,0,0,0,0,.29-.44.57-.84.84-1.19l.35-.45.23-.27c.14-.17.28-.32.41-.46l.26-.27a6.52,6.52,0,0,1,.58-.53l.19-.15a2.6,2.6,0,0,1,.35-.23,1.71,1.71,0,0,1,.31-.15l.1,0,.18,0,.18,0,.1,0a1.71,1.71,0,0,1,.31.15,2.6,2.6,0,0,1,.35.23l.19.15a6.52,6.52,0,0,1,.58.53l.26.27c.13.14.27.29.41.46l.23.27.35.45c.27.35.55.75.84,1.19,0,0,0,0,0,0,.22.34.46.72.7,1.12s.55.95.84,1.49l.29.55c.39.76.79,1.6,1.2,2.51.35.76.69,1.59,1.05,2.48q.4,1,.81,2.1l.27.75c.3.81.59,1.67.89,2.57a170.48,170.48,0,0,1,7.39,37.67c0,.19,0,.38.06.57s.08.54.14.81a10.52,10.52,0,0,0,1.14,3c.13.23.27.45.41.66a10.42,10.42,0,0,0,3.07,3,8.5,8.5,0,0,0,1.25.7,10.16,10.16,0,0,0,1.37.51c.3.09.62.17.94.24a10.32,10.32,0,0,0,1.48.19l.51,0a16.3,16.3,0,0,0,2.21-.15q.75-.1,1.47-.27t1.44-.39l.07,0a15.37,15.37,0,0,0,1.64-.62c.49-.22,1-.46,1.45-.72.25-.13.49-.27.74-.42l.72-.47s0,0,0,0c.47-.32.93-.66,1.37-1,.2-.16.39-.33.58-.5.35-.31.69-.64,1-1l.08-.09q.4-.42.78-.87a18.48,18.48,0,0,0,2.72-4.31,19,19,0,0,0,.76-1.94q.24-.72.42-1.47l15.06-62.92h10.52l15.06,62.92a18.65,18.65,0,0,0,3.76,7.55c.32.39.66.77,1,1.13a18.23,18.23,0,0,0,7.56,4.73l.51.16q.84.22,1.68.39l.53.08.4.06c.35,0,.7.08,1.06.1s.71,0,1.07,0l.49,0a10.19,10.19,0,0,0,1.47-.19q.48-.11.93-.24a10.32,10.32,0,0,0,4.43-2.71,13.72,13.72,0,0,0,.93-1.09,9.52,9.52,0,0,0,.77-1.21c.08-.14.15-.28.22-.43s.27-.59.39-.89a11.43,11.43,0,0,0,.42-1.41c.05-.24.1-.49.14-.73s.07-.5.09-.75c.12-1.54.26-3.11.43-4.7s.38-3.21.61-4.83.48-3.27.75-4.91c.69-4.09,1.53-8.19,2.47-12.12.18-.78.38-1.56.58-2.33s.39-1.54.6-2.29.41-1.5.63-2.23c.11-.37.22-.74.32-1.1s.22-.73.34-1.09.23-.72.34-1.08c.05-.17.11-.33.16-.5s.11-.33.16-.49c.15-.45.29-.89.44-1.32s.3-.84.44-1.25c.29-.81.59-1.58.87-2.31.11-.27.21-.54.32-.8q.31-.78.63-1.5l.31-.72c.2-.45.4-.88.61-1.3s.4-.82.59-1.2l.39-.74c.33-.61.65-1.17,1-1.67a17.51,17.51,0,0,1,2.57-3.41,6.52,6.52,0,0,1,.58-.53l.19-.15a2.6,2.6,0,0,1,.35-.23,1.71,1.71,0,0,1,.31-.15l.1,0,.18,0,.18,0,.1,0a1.71,1.71,0,0,1,.31.15,2.6,2.6,0,0,1,.35.23l.19.15a6.52,6.52,0,0,1,.58.53c1.86,1.85,4.87,6.34,8.14,16.22a170.48,170.48,0,0,1,7.39,37.67c0,.19,0,.38.06.57s.08.54.14.81a10.53,10.53,0,0,0,7.23,7.84,7.77,7.77,0,0,0,.95.24,10.32,10.32,0,0,0,1.48.19l.51,0a16.45,16.45,0,0,0,2.22-.15c.52-.08,1-.17,1.53-.28s.87-.22,1.3-.36l.14,0a15.88,15.88,0,0,0,1.5-.56l.18-.08.66-.31c.5-.25,1-.52,1.48-.81l.71-.47.57-.4.07-.05c.2-.15.4-.3.59-.46l.16-.12c.4-.32.78-.66,1.14-1a12.39,12.39,0,0,0,1.06-1.11c.17-.19.33-.38.49-.58a17.45,17.45,0,0,0,1.33-1.86c.17-.27.34-.54.49-.82s.44-.83.65-1.26h0a12.51,12.51,0,0,0,.55-1.31c.09-.24.17-.48.25-.72q.24-.72.42-1.47l7.93-33.14a21.29,21.29,0,0,0,3,.22,20.5,20.5,0,0,0,16.57-8.4,20.52,20.52,0,0,0,26-2.9Z" id="id_145"></path><path d="M123.7,176.66a37.73,37.73,0,1,1,37.73-37.73A37.77,37.77,0,0,1,123.7,176.66Zm0-65.45a27.73,27.73,0,1,0,27.73,27.72A27.76,27.76,0,0,0,123.7,111.21Z" id="id_146"></path><path d="M137.54,153.49a3.46,3.46,0,0,1-2.18-.77,3.5,3.5,0,0,1-.55-4.92,14,14,0,0,0,3.12-8.87,13.75,13.75,0,0,0-.28-2.79,3.5,3.5,0,0,1,6.87-1.37,21.23,21.23,0,0,1-4.24,17.41A3.5,3.5,0,0,1,137.54,153.49Z" id="id_147"></path><path d="M133.05,127.38a3.45,3.45,0,0,1-1.85-.53,14.2,14.2,0,0,0-2.89-1.38,3.5,3.5,0,0,1,2.28-6.62,21.31,21.31,0,0,1,4.31,2.06,3.5,3.5,0,0,1-1.85,6.47Z" id="id_148"></path><path d="M255.21,100.76A37.73,37.73,0,1,1,292.93,63,37.77,37.77,0,0,1,255.21,100.76Zm0-65.45A27.73,27.73,0,1,0,282.93,63,27.76,27.76,0,0,0,255.21,35.31Z" id="id_149"></path><path d="M269.05,77.59a3.53,3.53,0,0,1-2.19-.76,3.5,3.5,0,0,1-.54-4.92A14.07,14.07,0,0,0,269.43,63a14.32,14.32,0,0,0-.27-2.78A3.5,3.5,0,0,1,276,58.87a20.67,20.67,0,0,1,.41,4.16,21.25,21.25,0,0,1-4.65,13.25A3.45,3.45,0,0,1,269.05,77.59Z" id="id_150"></path><path d="M264.55,51.48A3.5,3.5,0,0,1,262.7,51a13.81,13.81,0,0,0-2.88-1.37A3.5,3.5,0,1,1,262.09,43a20.59,20.59,0,0,1,4.32,2,3.5,3.5,0,0,1-1.86,6.47Z" id="id_151"></path><path d="M492,130.44l-297.21-1.1h-.09a23.12,23.12,0,0,0-.08,46.23h.82l-.21,55.57a5.07,5.07,0,0,0,1.45,3.55,5,5,0,0,0,3.53,1.47l108.7.4h0a5,5,0,0,0,5-5l.21-55.57,177.82.65h0a5,5,0,0,0,5-5V135.44A5,5,0,0,0,492,130.44ZM304,226.56l-8.12,0,.06-16a5,5,0,0,0-5-5h0a5,5,0,0,0-5,5l-.06,16-8.11,0,.09-25.29a5,5,0,0,0-5-5h0a5,5,0,0,0-5,5l-.09,25.29-8.12,0,.07-18.7a5,5,0,0,0-5-5h0a5,5,0,0,0-5,5l-.07,18.7-8.12,0,.15-40.45a5,5,0,0,0-5-5h0a5,5,0,0,0-5,5l-.15,40.44-8.11,0,.09-25.29a5,5,0,0,0-5-5h0a5,5,0,0,0-5,5l-.09,25.29-8.12,0,.19-50.58,39.57.15,59.13.22Zm183-59.91L309.19,166h0l-77.66-.29-36.86-.14a13.12,13.12,0,0,1,.05-26.23h.05L487,140.42Z" id="id_152"></path></g></svg>