<svg fill="#1A76D0" xmlns="http://www.w3.org/2000/svg" viewBox="0 0 512 512"><title>Teeth_braces</title><g id="Teeth_braces"><path d="M481.41,169.26c-8.78-8.28-20.05-10.89-31.73-7.36l-17.26,5.24a62.09,62.09,0,0,1-36.66,0l-17.27-5.24c-11.67-3.53-22.94-.92-31.73,7.36A45.53,45.53,0,0,0,335,188.45a45.51,45.51,0,0,0-11.71-19.19c-8.79-8.28-20.06-10.89-31.74-7.36l-17.26,5.24a62.09,62.09,0,0,1-36.66,0l-17.26-5.24c-11.68-3.53-22.95-.92-31.74,7.36A45.51,45.51,0,0,0,177,188.45a45.53,45.53,0,0,0-11.72-19.19c-8.79-8.28-20.06-10.89-31.73-7.36l-17.27,5.24a62.09,62.09,0,0,1-36.66,0L62.32,161.9c-11.68-3.53-23-.92-31.73,7.36-12.82,12.08-17.8,33.68-12.69,55L44.43,335.23c2.27,9.5,10.73,16.4,20.21,16.4A11.6,11.6,0,0,0,76,340.92a207,207,0,0,1,9-45.76c5.67-17.14,10.91-21.68,12.89-21.68s7.22,4.53,12.89,21.68a207.42,207.42,0,0,1,9,45.76,11.61,11.61,0,0,0,11.49,10.71c9.38,0,17.84-6.89,20.11-16.4l25.13-105.08h.87l25.13,105.08c2.27,9.51,10.73,16.4,20.21,16.4a11.61,11.61,0,0,0,11.4-10.71,207,207,0,0,1,9-45.76C248.78,278,254,273.48,256,273.48s7.22,4.53,12.89,21.68a206.84,206.84,0,0,1,9,45.76,11.63,11.63,0,0,0,11.5,10.71c9.38,0,17.84-6.9,20.11-16.4l25.13-105.08h.86l25.14,105.08c2.27,9.51,10.73,16.4,20.21,16.4a11.59,11.59,0,0,0,11.39-10.71,207.54,207.54,0,0,1,9-45.76c5.67-17.14,10.91-21.68,12.89-21.68S421.31,278,427,295.16a206.84,206.84,0,0,1,9,45.76,11.62,11.62,0,0,0,11.49,10.71c9.39,0,17.85-6.89,20.12-16.4L494.1,224.29C499.21,202.94,494.23,181.34,481.41,169.26Zm-127.79,7.28c4.29-4,11.59-8.21,22-5.07l17.26,5.24a72,72,0,0,0,42.46,0l17.26-5.24c10.38-3.14,17.68,1,22,5.07,9.75,9.19,13.74,26.53,10.2,43.61H439.6v-7.5a5.59,5.59,0,0,0-5.59-5.58h-1.44a5.58,5.58,0,0,0-5.59,5.58v6.19H402.43v-6.19a5.58,5.58,0,0,0-5.58-5.58h-1.44a5.58,5.58,0,0,0-5.59,5.58v7.5h-46.4C339.88,203.07,343.87,185.73,353.62,176.54Zm-158.09,0c4.29-4,11.59-8.21,22-5.07l17.26,5.24a72,72,0,0,0,42.46,0l17.26-5.24c10.38-3.14,17.68,1,22,5.07,9.75,9.19,13.74,26.53,10.2,43.61H280.89v-7.5a5.58,5.58,0,0,0-5.59-5.58h-1.44a5.59,5.59,0,0,0-5.59,5.58v6.19H243.73v-6.19a5.59,5.59,0,0,0-5.59-5.58H236.7a5.59,5.59,0,0,0-5.59,5.58v7.5H185.33C181.79,203.07,185.78,185.73,195.53,176.54Zm-158.09,0c4.3-4,11.6-8.21,22-5.07l17.26,5.24a72,72,0,0,0,42.46,0l17.26-5.24c10.39-3.14,17.69,1,22,5.07,9.75,9.19,13.74,26.53,10.2,43.61h-46.4v-7.5a5.58,5.58,0,0,0-5.59-5.58h-1.44a5.58,5.58,0,0,0-5.58,5.58v6.19H85v-6.19a5.58,5.58,0,0,0-5.59-5.58H78a5.59,5.59,0,0,0-5.59,5.58v7.5H27.24C23.7,203.07,27.69,185.73,37.44,176.54ZM141.67,332.91c-1.19,5-5.66,8.72-10.44,8.72a1.54,1.54,0,0,1-1.47-1.48A218.7,218.7,0,0,0,120.3,292c-6.35-19.2-13.68-28.54-22.39-28.54s-16,9.34-22.38,28.54a217.52,217.52,0,0,0-9.46,48.14,1.56,1.56,0,0,1-1.52,1.47c-4.74,0-9.2-3.75-10.39-8.72L29.58,230.15H72.4v7.49A5.59,5.59,0,0,0,78,243.23h1.44A5.59,5.59,0,0,0,85,237.64v-6.18h24.55v6.18a5.58,5.58,0,0,0,5.58,5.59h1.44a5.59,5.59,0,0,0,5.59-5.59v-7.49h44.06Zm158.09,0c-1.19,5-5.66,8.72-10.44,8.72a1.56,1.56,0,0,1-1.48-1.48A217.55,217.55,0,0,0,278.38,292c-6.35-19.2-13.67-28.54-22.38-28.54s-16,9.34-22.38,28.54a217.52,217.52,0,0,0-9.46,48.14,1.57,1.57,0,0,1-1.53,1.47c-4.73,0-9.2-3.75-10.39-8.72L187.67,230.15h43.44v7.49a5.59,5.59,0,0,0,5.59,5.59h1.44a5.59,5.59,0,0,0,5.59-5.59v-6.18h24.54v6.18a5.59,5.59,0,0,0,5.59,5.59h1.44a5.59,5.59,0,0,0,5.59-5.59v-7.49h43.44Zm158.08,0c-1.19,5-5.65,8.72-10.43,8.72a1.55,1.55,0,0,1-1.48-1.48A217.55,217.55,0,0,0,436.47,292c-6.35-19.2-13.67-28.54-22.38-28.54s-16,9.34-22.39,28.54a218.68,218.68,0,0,0-9.46,48.14,1.55,1.55,0,0,1-1.52,1.47c-4.73,0-9.2-3.75-10.39-8.72L345.76,230.15h44.06v7.49a5.59,5.59,0,0,0,5.59,5.59h1.44a5.58,5.58,0,0,0,5.58-5.59v-6.18H427v6.18a5.59,5.59,0,0,0,5.59,5.59H434a5.59,5.59,0,0,0,5.59-5.59v-7.49h42.82Z" id="id_107"></path></g></svg>