<svg fill="#1A76D0" xmlns="http://www.w3.org/2000/svg" viewBox="0 0 512 512"><title>Dental_fillings</title><g id="Dental_fillings"><path d="M492,308.84H411a41.27,41.27,0,0,0-24.24,7.8l21-88A133.11,133.11,0,0,0,411.41,192a5,5,0,1,0-10,.43,123.23,123.23,0,0,1-3.35,33.9L346.19,443.21a27.27,27.27,0,0,1-1.41,4.29c-4.11,9.62-13.57,16.44-23.55,16.44v5l-.1-5a7.36,7.36,0,0,1-3.47-.88,8,8,0,0,1-4.16-6.42,426.58,426.58,0,0,0-16.62-87.8q-.81-2.64-1.65-5.17C283.7,328.82,270.5,311.15,256,311.15s-27.7,17.67-39.23,52.52c-9,27.05-16,62.67-18.27,93a7.82,7.82,0,0,1-7.62,7.29h-.11c-11.41,0-22.14-8.91-25-20.73L113.93,226.3c-4.4-18.42-4.6-37.17-.58-54.21,3.83-16.2,11.14-29.75,21.15-39.18,9.31-8.78,25.14-17.81,47.63-11l10.75,3.26v42.17a29,29,0,0,0,29,28.95h68.32a29,29,0,0,0,29-28.95V125.17l10.75-3.26c31.87-9.65,53.82,11.63,63.74,34.76a5,5,0,1,0,9.19-3.94c-14.61-34.06-44.37-49.92-75.83-40.39l-33.75,10.23a126.11,126.11,0,0,1-74.44,0L185,112.34c-21.13-6.4-41.5-1.68-57.39,13.29-23.83,22.46-33,62.89-23.43,103l21,88a41.27,41.27,0,0,0-24.24-7.8H20a5,5,0,0,0-5,5V491a5,5,0,0,0,5,5H492a5,5,0,0,0,5-5V313.84A5,5,0,0,0,492,308.84ZM220.87,133.56A136.85,136.85,0,0,0,256,138.2a137.61,137.61,0,0,0,40.12-6.06l13-3.94v39.14a19,19,0,0,1-19,18.95H221.84a19,19,0,0,1-19-18.95V128.2l13,3.94C217.54,132.64,219.21,133.12,220.87,133.56ZM487,486H25V318.84h76a31.29,31.29,0,0,1,30.53,24.09l24.54,102.61c.25,1,.53,2,.86,3a37.93,37.93,0,0,0,1.73,4.33c.22.46.45.92.69,1.37,6.18,11.79,18.27,19.67,31.41,19.67h.16a17.88,17.88,0,0,0,17.54-16.53c.85-11.08,2.34-22.89,4.33-34.71a389.41,389.41,0,0,1,13.46-55.89c7.69-23.23,16.47-38.85,24.4-43.9a10.06,10.06,0,0,1,5.34-1.76c9.16,0,20.28,17.07,29.74,45.66,1.63,4.94,3.2,10.17,4.68,15.61a421.81,421.81,0,0,1,13.11,75A17.86,17.86,0,0,0,321,473.94h.24c16.17,0,30.75-11.94,34.69-28.4l24.54-102.61A31.29,31.29,0,0,1,411,318.84h76Z" id="id_141"></path><path d="M221.84,95.8h68.32a29,29,0,0,0,29-28.95V21a5,5,0,0,0-6.46-4.79l-19.44,5.9a126,126,0,0,1-74.44,0l-19.44-5.89A5,5,0,0,0,192.88,21V66.85A29,29,0,0,0,221.84,95.8Zm-19-68.09,13,3.93a135.84,135.84,0,0,0,80.24,0l13-3.93V66.85a19,19,0,0,1-19,19H221.84a19,19,0,0,1-19-19Z" id="id_142"></path></g></svg>