<svg fill="#1A76D0" xmlns="http://www.w3.org/2000/svg" viewBox="0 0 512 512"><title>Healthy_tooth</title><g id="Healthy_tooth"><path d="M229.92,140.37a142.87,142.87,0,0,1-41.67-6.3l-35.1-10.63a51.26,51.26,0,0,0-26.05-1.38,5,5,0,0,1-2.15-9.77,61.19,61.19,0,0,1,31.1,1.58l35.1,10.63a131.32,131.32,0,0,0,77.54,0l35.11-10.64c13.89-4.21,27.25-3.86,39.71,1a5,5,0,1,1-3.66,9.3c-10.32-4.06-21.47-4.32-33.15-.78l-35.11,10.64A143.14,143.14,0,0,1,229.92,140.37Z" id="id_101"></path><path d="M297.77,489.56h-.19a18.41,18.41,0,0,1-18-17c-4.89-63.87-28.75-141.89-49.63-141.89s-44.74,78-49.63,141.9a18.4,18.4,0,0,1-18,17h-.16c-16.72,0-31.81-12.36-35.88-29.39l-54-225.59a135.11,135.11,0,0,1-2.78-49.24,5,5,0,1,1,9.92,1.3A125,125,0,0,0,82,232.25l53.95,225.6c3,12.38,14.21,21.71,26.16,21.71h.11a8.34,8.34,0,0,0,8.13-7.77c2.41-31.5,9.69-68.54,19-96.66,12-36.15,25.62-54.48,40.61-54.48s28.66,18.33,40.62,54.48c9.29,28.12,16.57,65.15,19,96.65a8.35,8.35,0,0,0,8.13,7.78h.11c12,0,23.19-9.33,26.15-21.71l42.6-178.1a5,5,0,0,1,9.72,2.33L333.65,460.17C329.58,477.2,314.49,489.56,297.77,489.56Z" id="id_102"></path><path d="M83.5,159.47A5,5,0,0,1,79,152.32a82,82,0,0,1,17.77-24.86,5,5,0,0,1,6.84,7.31A71.45,71.45,0,0,0,88,156.61,5,5,0,0,1,83.5,159.47Z" id="id_103"></path><path d="M183.08,300.46a5,5,0,0,1-4.91-4.06c-6.16-32.1-10.1-36-42.2-42.2a5,5,0,0,1,0-9.82c32.1-6.16,36-10.11,42.2-42.21a5,5,0,0,1,9.82,0c6.16,32.1,10.11,36.05,42.21,42.21a5,5,0,0,1,0,9.82c-32.1,6.16-36,10.1-42.21,42.2A5,5,0,0,1,183.08,300.46Zm-25.26-51.17c13.85,4.69,20.57,11.42,25.26,25.26,4.7-13.84,11.42-20.57,25.26-25.26-13.84-4.69-20.56-11.42-25.26-25.26C178.39,237.87,171.67,244.6,157.82,249.29Z" id="id_104"></path><path d="M241,107.2a5,5,0,0,1-4.91-4.06c-4.93-25.68-7.74-28.49-33.41-33.41a5,5,0,0,1,0-9.82c25.67-4.93,28.48-7.74,33.41-33.41a5,5,0,0,1,9.82,0c4.93,25.67,7.74,28.48,33.41,33.41a5,5,0,0,1,0,9.82c-25.67,4.92-28.48,7.73-33.41,33.41A5,5,0,0,1,241,107.2Zm-17.6-42.38c9.07,3.54,14.06,8.52,17.6,17.59,3.54-9.07,8.53-14,17.6-17.59-9.07-3.54-14.06-8.53-17.6-17.6C237.44,56.29,232.45,61.28,223.38,64.82Z" id="id_105"></path><path d="M379,247.26A5,5,0,0,1,374,243.2c-8.14-42.39-13.35-47.6-55.74-55.73a5,5,0,0,1,0-9.82c42.39-8.13,47.6-13.34,55.74-55.73a5,5,0,0,1,9.82,0c8.13,42.39,13.34,47.6,55.73,55.73a5,5,0,0,1,0,9.82c-42.39,8.13-47.6,13.34-55.73,55.73A5,5,0,0,1,379,247.26Zm-37.41-64.7c22,6.4,31,15.41,37.41,37.4,6.39-22,15.41-31,37.4-37.4-22-6.4-31-15.41-37.4-37.4C372.55,167.15,363.53,176.16,341.54,182.56Z" id="id_106"></path></g></svg>