<svg fill="#1A76D0" xmlns="http://www.w3.org/2000/svg" viewBox="0 0 512 512"><title>Dental_braces</title><g id="Dental_braces"><path d="M492,294.21h-3.61q-.58-6.1-1.36-11.65A42,42,0,0,0,491,267.45l5.94-85.8a41.55,41.55,0,0,0-10.7-31.17,33.76,33.76,0,0,0-24.81-11.09H50.61A33.76,33.76,0,0,0,25.8,150.48a41.55,41.55,0,0,0-10.7,31.17L21,267.45a41.56,41.56,0,0,0,4.76,16.74c-.44,3.2-.82,6.54-1.16,10H20a5,5,0,0,0,0,10h3.86a387.88,387.88,0,0,0-.27,39.55,5,5,0,0,0,1.56,3.42c1,.94,10.52,9.35,41.68,16.65l.45.08a199.58,199.58,0,0,0,25.13,1.61c12.67,0,27.42-1.36,37.32-6.59,6.53,3.35,24,10.42,59.66,13.66l.46,0c2,0,47.18-.16,67-13.59,6.67,3.38,24.17,10.36,59.5,13.57l.45,0c2,0,47.47-.16,67.19-13.72,9.89,4.92,24.24,6.22,36.61,6.22a199.77,199.77,0,0,0,25.13-1.61l.45-.08c31.15-7.31,40.7-15.72,41.68-16.65a5,5,0,0,0,1.56-3.42,386.18,386.18,0,0,0-.25-39.14H492a5,5,0,0,0,0-10Zm-33-.77v-6.73a5.58,5.58,0,0,0-5.58-5.58H452a5.58,5.58,0,0,0-5.59,5.58v6.19H421.83v-6.19a5.58,5.58,0,0,0-5.58-5.58h-1.44a5.58,5.58,0,0,0-5.59,5.58v7.5H391.49l.06-.48c4.79-37.84,14.5-62.87,28.13-72.47,7.6-5.35,16.47-5.91,27.13-1.71l.08,0c.28.12,21.61,9.21,29.77,61.22q1,6.27,1.7,13.41H459Zm-114.17.29v-7a5.58,5.58,0,0,0-5.59-5.58H337.8a5.58,5.58,0,0,0-5.59,5.58v6.19H307.66v-6.19a5.58,5.58,0,0,0-5.59-5.58h-1.44a5.58,5.58,0,0,0-5.58,5.58v7.5H264.87l.06-.48c6.1-46.33,19.21-69.3,30.69-80.68,11-10.89,20.39-11.09,21-11.09h.13c11,0,20.27,4.09,28.45,12.49,17.08,17.54,25.4,50.12,29.44,79.28l.06.48H344.82Zm-128.3,0v-7a5.59,5.59,0,0,0-5.59-5.58h-1.44a5.59,5.59,0,0,0-5.59,5.58v6.19H179.36v-6.19a5.59,5.59,0,0,0-5.59-5.58h-1.44a5.58,5.58,0,0,0-5.59,5.58v7.5H137.92l.06-.48c6.11-46.33,19.22-69.3,30.7-80.68,11-10.89,20.39-11.09,21-11.09h.14c11,0,20.26,4.09,28.45,12.49,17.08,17.54,25.4,50.12,29.43,79.28l.06.48H216.52Zm-112.74,0v-7a5.58,5.58,0,0,0-5.59-5.58H96.75a5.59,5.59,0,0,0-5.59,5.58v6.19H66.62v-6.19A5.59,5.59,0,0,0,61,281.13H59.59A5.58,5.58,0,0,0,54,286.71v7.5H34.69q.63-6.37,1.51-12.06c8-52.51,29.35-61.93,29.9-62.15l.09,0c10.66-4.2,19.53-3.64,27.13,1.71,13.58,9.55,23.27,34.45,28.07,72.06l.06.48H103.78ZM25.08,181a31.49,31.49,0,0,1,8-23.66,23.88,23.88,0,0,1,17.5-7.91H461.39a23.88,23.88,0,0,1,17.5,7.91,31.46,31.46,0,0,1,8,23.66l-5.25,75.92c-10.92-38-29.2-45.88-31.23-46.65-13.83-5.43-26.11-4.47-36.52,2.85-17.35,12.22-26.28,41-30.85,69.29-5.9-34.88-16.2-60-30.66-74.89-10-10.29-22-15.52-35.61-15.52-1.58,0-14.1.34-27.63,13.41-17.94,17.34-27.73,46.81-32.81,78.39-5.87-35.6-16.24-61.23-30.89-76.28-10-10.29-22-15.52-35.61-15.52-1.6,0-14.11.34-27.63,13.41-17.56,17-27.31,45.55-32.48,76.35-4.61-28-13.53-56.16-30.67-68.22-10.41-7.33-22.69-8.29-36.52-2.86-2.07.79-21.21,9.07-32,49.47ZM68.88,354C47,348.89,37,343.28,33.49,341c-.49-13.73-.31-25.93.39-36.78H54v7.5a5.58,5.58,0,0,0,5.59,5.58H61a5.59,5.59,0,0,0,5.59-5.58v-6.19H91.16v6.19a5.59,5.59,0,0,0,5.59,5.58h1.44a5.58,5.58,0,0,0,5.59-5.58v-7.5h18.78c1.61,16.56,2,31.49,2,40.38,0,2,0,3.89,0,5.8C110.11,357.6,80.09,355.56,68.88,354Zm65.67-3.88c0-1.7,0-4,0-6.79.24-14.48,1-27.48,2.18-39.16h30v7.5a5.58,5.58,0,0,0,5.59,5.58h1.44a5.59,5.59,0,0,0,5.59-5.58v-6.19H203.9v6.19a5.59,5.59,0,0,0,5.59,5.58h1.44a5.59,5.59,0,0,0,5.59-5.58v-7.5H249a423.6,423.6,0,0,1,2.45,43c0,1.14,0,2.27,0,3.4-13.79,9.74-48.39,12-61.38,12C156.13,359.5,140,352.87,134.55,350.16Zm243.87.43c-13.79,9.75-48.41,12-61.41,12-34-3.11-50.16-9.76-55.53-12.46,0-1.06,0-2.39,0-3.95v0c.18-15.61,1-29.53,2.22-42h31.35v7.5a5.58,5.58,0,0,0,5.58,5.58h1.44a5.58,5.58,0,0,0,5.59-5.58v-6.19h24.55v6.19a5.58,5.58,0,0,0,5.59,5.58h1.43a5.58,5.58,0,0,0,5.59-5.58v-7.5H376c1.92,17.55,2.36,32.88,2.44,41.44,0,.39,0,.77,0,1.14,0,.64,0,1.24,0,1.79v.21C378.43,349.47,378.42,350.07,378.42,350.59Zm101.09-10c-3.51,2.32-13.6,7.93-35.39,13.06-11.23,1.52-41.29,3.56-55.66-3.67a440.28,440.28,0,0,1,1.93-45.75h18.83v7.5a5.58,5.58,0,0,0,5.59,5.58h1.44a5.58,5.58,0,0,0,5.58-5.58v-6.19h24.55v6.19a5.58,5.58,0,0,0,5.59,5.58h1.44a5.58,5.58,0,0,0,5.58-5.58v-7.5h20.16C479.82,315,480,327,479.51,340.57Z" id="id_144"></path></g></svg>