<svg fill="#1A76D0" xmlns="http://www.w3.org/2000/svg" xml:space="preserve" width="1.70666in" height="1.70666in" version="1.1" style="shape-rendering:geometricPrecision; text-rendering:geometricPrecision; image-rendering:optimizeQuality; fill-rule:evenodd; clip-rule:evenodd" viewBox="0 0 1706.66 1706.66" xmlns:xlink="http://www.w3.org/1999/xlink" xmlns:xodm="http://www.corel.com/coreldraw/odm/2003">
 <defs>
  <style type="text/css">
   
    .fil0 {fill:#1A76D0}
   
  </style>
 </defs>
 <g id="Layer_x0020_1">
  <metadata id="CorelCorpID_0Corel-Layer"></metadata>
  <path class="fil0" d="M823.85 1530.16c-13.52,0 -23.46,-13.62 -18.86,-26.67 100.7,-284.94 -141.11,-452.98 -194.39,-485.89 -53.29,32.9 -295.09,200.96 -194.39,485.89 6.61,18.71 -15.65,34.64 -31.25,22.36 -277.55,-218.83 -274.59,-507.32 -237.59,-737.62 -211.06,-142.63 -195.46,-470.06 45.1,-579.81 122.24,-55.76 263.92,-37.37 360.98,46.83 43.98,38.17 70.31,38.16 114.3,0 200.66,-174.07 553.42,-46.57 553.42,255.42l-40 0.46c0,-267.65 -311.95,-377.76 -487.21,-225.67 -59.23,51.41 -107.49,51.41 -166.72,0 -175.41,-152.22 -487.22,-41.56 -487.22,225.24 0,102.83 52.25,196.61 139.76,250.89 6.89,4.28 10.51,12.29 9.18,20.29 -34.65,206.85 -44.28,465.72 171.5,670.06 -61.2,-304.04 237.23,-473.26 240.46,-475.05 6.02,-3.33 13.33,-3.33 19.36,0 3.23,1.79 301.73,171.08 240.43,475.19 104.84,-98.76 165.19,-217.29 183.88,-360.54 3.42,-26.17 43.07,-20.88 39.65,5.18 -22.86,175.24 -103.99,315.62 -248.01,429.15 -3.61,2.86 -7.98,4.3 -12.37,4.3z" id="id_126"></path>
  <path class="fil0" d="M610.6 516.97c-47.22,0 -94.29,-24.31 -145.21,-68.48 -19.89,-17.25 6.33,-47.46 26.21,-30.21 171.38,148.71 227.76,-42.33 266.21,2 7.24,8.35 6.35,20.97 -2,28.21 -50.89,44.16 -98.04,68.48 -145.2,68.48z" id="id_127"></path>
  <path class="fil0" d="M1104.75 1116.85c-284.89,0 -428.14,-345.85 -226.69,-547.3 125.26,-125.27 328.14,-125.26 453.4,0 201.64,201.63 57.22,547.3 -226.71,547.3zm0 -601.2c-249.33,0 -374.74,302.66 -198.4,478.99 109.65,109.65 287.17,109.64 396.82,0 176.47,-176.45 50.13,-478.99 -198.42,-478.99z" id="id_128"></path>
  <path class="fil0" d="M1321.44 1142.31c-15.41,0 -60.2,-51.92 -80.08,-71.79 -18.64,-18.64 9.7,-46.91 28.29,-28.29l65.93 65.93c12.67,12.67 3.48,34.15 -14.14,34.15zm109.38 -109.37c-15.4,0 -60.3,-51.98 -80.09,-71.79 -18.63,-18.65 9.69,-46.91 28.29,-28.29l65.94 65.93c12.65,12.66 3.5,34.16 -14.14,34.16z" id="id_129"></path>
  <path class="fil0" d="M1584.55 1398.07c-32.69,0 -63.37,-12.65 -86.37,-35.64l-208.43 -208.43c-7.81,-7.83 -7.81,-20.48 0,-28.3l144.45 -144.44c7.51,-7.48 20.78,-7.48 28.29,0l208.43 208.43c76.55,76.56 22.3,208.39 -86.37,208.39zm-252.37 -258.22l194.29 194.28c31.94,31.94 84.23,31.94 116.18,0 32.02,-32.04 32.02,-84.15 0,-116.16l-194.28 -194.3 -116.19 116.17z" id="id_130"></path>
  <path class="fil0" d="M1480.35 1191.83c-17.64,0 -26.81,-21.5 -14.15,-34.15l72.22 -72.22c18.65,-18.65 46.91,9.7 28.29,28.29l-72.22 72.22c-3.89,3.91 -9.01,5.86 -14.14,5.86z" id="id_131"></path>
  <path class="fil0" d="M1104.76 1027.26c-205.3,0 -308.54,-249.2 -163.37,-394.36 90.27,-90.26 236.44,-90.28 326.71,0 145.26,145.26 41.28,394.36 -163.35,394.36zm0 -422.03c-169.75,0 -255.09,206.01 -135.07,326.07 119.9,119.95 326.07,34.79 326.07,-135.06 0,-105.56 -85.43,-191.01 -191,-191.01z" id="id_132"></path>
  <path class="fil0" d="M1143.53 758.67c-74.96,0 -74.97,-113.89 0,-113.89 74.96,0 74.96,113.89 0,113.89zm0 -73.87c-22.3,0 -22.3,33.89 0,33.89 22.3,0 22.3,-33.89 0,-33.89z" id="id_133"></path>
  <path class="fil0" d="M1014.42 812.96c-17.64,0 -26.81,-21.48 -14.13,-34.15 10.1,-10.1 26.02,-31.17 42.72,-14.45 19.37,19.39 -16.7,48.6 -28.59,48.6z" id="id_134"></path>
  <path class="fil0" d="M1160.7 947.7c-74.92,0 -74.96,-113.88 0,-113.88 74.99,0 74.93,113.88 0,113.88zm0 -73.87c-22.29,0 -22.27,33.87 0,33.87 22.3,0 22.31,-33.87 0,-33.87z" id="id_135"></path>
  <path class="fil0" d="M1205.02 808.59c-17.64,0 -26.81,-21.48 -14.14,-34.15 10.09,-10.09 26.02,-31.15 42.72,-14.44 19.35,19.35 -16.65,48.6 -28.59,48.6z" id="id_136"></path>
  <path class="fil0" d="M1102.96 826.09c-17.64,0 -26.81,-21.48 -14.14,-34.15 10.11,-10.11 26.01,-31.16 42.72,-14.44 19.36,19.36 -16.67,48.6 -28.59,48.6z" id="id_137"></path>
  <path class="fil0" d="M1026.81 713.85c-17.65,0 -26.77,-21.5 -14.15,-34.14 10.08,-10.1 26.02,-31.17 42.7,-14.44 19.39,19.41 -16.63,48.58 -28.56,48.58z" id="id_138"></path>
  <path class="fil0" d="M990.05 884.5c-17.59,0 -26.83,-21.47 -14.14,-34.15 10.14,-10.12 26.03,-31.14 42.72,-14.41 19.37,19.41 -16.71,48.56 -28.59,48.56z" id="id_139"></path>
  <path class="fil0" d="M1057.66 912.09c-17.64,0 -26.81,-21.5 -14.15,-34.15 10.07,-10.06 26.02,-31.17 42.74,-14.45 19.4,19.4 -16.69,48.6 -28.59,48.6z" id="id_140"></path>
 </g>
</svg>